<?xml version="1.0" standalone="no"?><svg xmlns="http://www.w3.org/2000/svg" viewBox="0 0 1440 320"><path fill="#a0522d" fill-opacity="1" d="M0,320L17.1,288C34.3,256,69,192,103,154.7C137.1,117,171,107,206,96C240,85,274,75,309,64C342.9,53,377,43,411,42.7C445.7,43,480,53,514,90.7C548.6,128,583,192,617,202.7C651.4,213,686,171,720,165.3C754.3,160,789,192,823,213.3C857.1,235,891,245,926,245.3C960,245,994,235,1029,202.7C1062.9,171,1097,117,1131,80C1165.7,43,1200,21,1234,58.7C1268.6,96,1303,192,1337,229.3C1371.4,267,1406,245,1423,234.7L1440,224L1440,0L1422.9,0C1405.7,0,1371,0,1337,0C1302.9,0,1269,0,1234,0C1200,0,1166,0,1131,0C1097.1,0,1063,0,1029,0C994.3,0,960,0,926,0C891.4,0,857,0,823,0C788.6,0,754,0,720,0C685.7,0,651,0,617,0C582.9,0,549,0,514,0C480,0,446,0,411,0C377.1,0,343,0,309,0C274.3,0,240,0,206,0C171.4,0,137,0,103,0C68.6,0,34,0,17,0L0,0Z"></path></svg>